<svg width="32" height="31" xmlns="http://www.w3.org/2000/svg" fill="none">
 <title>YM</title>
 <defs>
  <filter color-interpolation-filters="sRGB" filterUnits="userSpaceOnUse" height="31" width="32" y="0" x="0" id="filter0_d_40_25">
   <feGaussianBlur stdDeviation="2"/>
  </filter>
 </defs>
 <g>
  <title>Layer 1</title>
  <g id="svg_1" filter="url(#filter0_d_40_25)">
   <path id="svg_2" fill="white" d="m15.996,2c-2.8488,0.00146 -5.6042,0.99852 -7.77355,2.8129c-2.16931,1.81439 -3.61105,4.32777 -4.06742,7.0907c-0.45637,2.763 0.10239,5.5954 1.57636,7.9907c1.47398,2.3953 3.76706,4.1974 6.46921,5.084c0.5961,0.1094 0.8207,-0.2557 0.8207,-0.5662c0,-0.3104 -0.0119,-1.2105 -0.0159,-2.1945c-3.33839,0.7126 -4.04381,-1.3921 -4.04381,-1.3921c-0.54448,-1.3667 -1.33138,-1.726 -1.33138,-1.726c-1.08895,-0.7302 0.08147,-0.7165 0.08147,-0.7165c1.20619,0.0839 1.84009,1.2164 1.84009,1.2164c1.06903,1.8021 2.80783,1.2808 3.49133,0.9762c0.1074,-0.7634 0.4193,-1.2828 0.7631,-1.5776c-2.6667,-0.2968 -5.46858,-1.3081 -5.46858,-5.8261c-0.01652,-1.1717 0.426,-2.3048 1.23601,-3.1649c-0.12321,-0.29679 -0.53455,-1.49559 0.11723,-3.12393c0,0 1.00744,-0.31629 3.30064,1.20857c1.9669,-0.5285 4.0422,-0.5285 6.0091,0c2.2911,-1.52486 3.2966,-1.20857 3.2966,-1.20857c0.6538,1.62444 0.2425,2.82324 0.1192,3.12393c0.8126,0.8602 1.2561,1.9953 1.238,3.1688c0,4.5277 -2.8078,5.5254 -5.4785,5.8163c0.4292,0.3671 0.8127,1.0837 0.8127,2.1848c0,1.5776 -0.0139,2.8467 -0.0139,3.2352c0,0.3144 0.2166,0.6814 0.8247,0.5662c2.7025,-0.8867 4.9958,-2.6891 6.4697,-5.0848c1.474,-2.3958 2.0324,-5.2286 1.5755,-7.9918c-0.4568,-2.76321 -1.8993,-5.27662 -4.0693,-7.09069c-2.1701,-1.81407 -4.9261,-2.81048 -7.7753,-2.81101l-0.004,0z" clip-rule="evenodd" fill-rule="evenodd"/>
  </g>
 </g>
</svg>